<?xml version="1.0" standalone="no"?>
<!DOCTYPE svg PUBLIC "-//W3C//DTD SVG 20010904//EN"
 "http://www.w3.org/TR/2001/REC-SVG-20010904/DTD/svg10.dtd">
<svg version="1.0" xmlns="http://www.w3.org/2000/svg"
 width="500.000000pt" height="500.000000pt" viewBox="0 0 500.000000 500.000000"
 preserveAspectRatio="xMidYMid meet">
<metadata>
Created by potrace 1.11, written by Peter Selinger 2001-2013
</metadata>
<g transform="translate(0.000000,500.000000) scale(0.100000,-0.100000)"
fill="#000000" stroke="none">
<path d="M3838 4794 c-2 -1 -46 -9 -98 -18 -52 -9 -105 -18 -116 -20 -12 -3
-37 -7 -55 -10 -19 -3 -45 -8 -59 -11 -14 -3 -45 -8 -70 -11 -25 -3 -61 -9
-80 -14 -19 -4 -57 -12 -85 -16 -27 -4 -54 -8 -60 -10 -24 -5 -153 -27 -180
-29 -16 -2 -32 -4 -35 -6 -3 -1 -9 -3 -15 -4 -5 -2 -12 -4 -15 -5 -3 -1 -21
-3 -41 -5 -47 -4 -74 -19 -76 -42 -1 -10 -15 -58 -31 -108 -17 -49 -65 -198
-107 -330 -42 -132 -93 -289 -113 -350 -20 -60 -35 -114 -34 -119 2 -5 -7 -6
-20 -2 -13 4 -27 8 -33 10 -5 2 -17 6 -25 9 -37 14 -87 29 -110 33 -13 3 -30
10 -37 16 -7 6 -13 7 -13 3 0 -4 -7 -2 -15 5 -8 7 -15 10 -15 7 0 -4 -19 1
-42 9 -24 9 -47 17 -53 18 -5 1 -172 56 -370 121 -198 66 -362 119 -365 120
-23 4 -128 40 -138 48 -6 5 -12 6 -12 3 0 -4 -8 -2 -18 3 -11 6 -30 12 -43 15
-13 3 -43 12 -67 21 -24 8 -52 17 -63 18 -10 2 -25 9 -31 15 -7 7 -21 12 -31
12 -11 0 -58 13 -106 29 -177 58 -173 58 -286 35 -16 -3 -41 -7 -55 -9 -14 -2
-25 -4 -25 -5 0 -1 -9 -3 -20 -4 -25 -4 -102 -17 -135 -23 -14 -3 -36 -6 -50
-8 -14 -1 -32 -5 -40 -9 -8 -3 -31 -8 -50 -10 -19 -2 -46 -7 -60 -10 -14 -3
-41 -8 -60 -11 -19 -3 -46 -7 -60 -10 -14 -3 -41 -8 -60 -11 -55 -8 -63 -12
-55 -32 4 -9 8 -25 10 -35 2 -10 7 -27 10 -37 3 -10 8 -28 10 -39 8 -35 13
-53 40 -154 15 -54 28 -107 30 -117 2 -10 8 -27 14 -38 6 -11 8 -22 5 -24 -2
-3 0 -18 7 -34 6 -16 13 -40 15 -53 3 -14 14 -57 25 -97 11 -40 22 -82 24 -94
2 -11 7 -25 11 -31 4 -7 8 -19 9 -28 5 -47 18 -101 24 -101 4 0 8 -10 8 -22 2
-37 46 -193 55 -196 4 -2 6 -8 3 -13 -3 -5 0 -28 6 -51 7 -24 13 -47 15 -53 1
-5 27 -104 58 -220 32 -115 59 -218 61 -228 2 -10 7 -27 10 -37 3 -10 7 -27 9
-37 2 -10 10 -38 17 -63 7 -25 14 -49 15 -55 1 -5 15 -55 29 -110 15 -55 29
-107 31 -115 2 -8 19 -73 39 -145 20 -71 37 -139 40 -150 2 -11 8 -35 13 -52
6 -18 9 -33 7 -33 -2 0 3 -16 11 -35 8 -19 11 -35 8 -35 -4 0 -1 -6 5 -13 6
-8 8 -17 5 -20 -3 -3 -2 -12 2 -19 5 -7 9 -17 11 -23 1 -5 5 -23 9 -40 3 -16
8 -37 9 -45 1 -8 5 -22 8 -30 6 -14 28 -92 33 -115 1 -5 21 -82 44 -170 23
-88 44 -171 47 -184 2 -14 6 -28 9 -33 5 -8 32 -104 40 -142 3 -18 23 -93 95
-355 15 -57 26 -108 23 -113 -3 -4 -1 -8 5 -8 5 0 11 -10 13 -22 l3 -23 1358
0 c1234 0 1360 1 1368 16 4 9 10 27 12 40 3 13 9 35 15 49 11 27 43 134 44
147 1 5 7 22 14 39 7 17 10 34 7 38 -4 3 -2 6 4 6 5 0 10 6 10 13 0 13 82 276
91 292 3 5 7 16 7 25 2 13 27 95 135 435 100 314 133 422 135 435 1 8 5 22 8
30 19 44 35 100 30 100 -3 0 -1 6 5 13 6 7 13 24 16 37 2 14 11 44 20 68 8 23
15 43 15 45 0 1 2 9 5 17 3 8 12 38 20 65 42 142 166 538 307 980 12 39 23 77
24 85 1 8 8 29 14 45 7 17 23 66 36 110 13 44 40 130 59 190 20 61 36 117 36
126 0 9 3 19 8 23 4 4 7 11 8 14 0 4 3 14 6 22 4 8 13 38 21 65 22 73 96 314
112 361 15 47 15 47 -45 95 -93 73 -151 106 -603 333 -405 203 -488 241 -499
230z"/>
</g>
</svg>
